<?xml version="1.0" standalone="no"?>
<!DOCTYPE svg PUBLIC "-//W3C//DTD SVG 20010904//EN"
 "http://www.w3.org/TR/2001/REC-SVG-20010904/DTD/svg10.dtd">
<svg version="1.0" xmlns="http://www.w3.org/2000/svg"
 width="500.000000pt" height="500.000000pt" viewBox="0 0 500.000000 500.000000"
 preserveAspectRatio="xMidYMid meet">

<g transform="translate(0.000000,500.000000) scale(0.100000,-0.100000)"
fill="#000000" stroke="none">
<path d="M2406 4719 c-32 -77 -56 -179 -64 -271 -9 -94 -10 -98 -51 -146 -118
-142 -232 -222 -506 -358 -276 -136 -363 -208 -416 -344 -30 -76 -29 -203 0
-281 23 -60 115 -199 131 -199 6 0 10 32 10 73 0 132 43 235 139 340 78 84
164 142 294 196 151 65 231 106 291 151 63 47 136 123 165 173 13 20 24 37 25
37 2 0 29 -35 60 -77 88 -119 211 -201 416 -278 169 -64 326 -199 397 -342 37
-75 38 -80 38 -185 l0 -107 38 37 c50 49 114 180 126 260 22 140 -32 282 -142
374 -63 53 -115 83 -317 186 -218 111 -340 192 -416 276 -84 93 -114 143 -114
190 0 64 -18 158 -45 237 -31 93 -41 102 -59 58z"/>
<path d="M2362 3128 c-123 -14 -255 -106 -312 -219 -46 -89 -50 -125 -50 -467
0 -249 -3 -324 -12 -326 -7 -3 -96 -7 -198 -10 l-186 -5 -17 272 c-19 293 -44
574 -56 622 -5 21 -13 -27 -24 -155 -22 -234 -47 -595 -47 -682 0 -37 -3 -69
-8 -72 -4 -2 -52 -12 -107 -21 -123 -20 -318 -84 -402 -131 -65 -36 -172 -128
-162 -138 3 -3 30 -2 60 4 97 17 319 39 534 51 152 8 355 9 735 3 934 -15 995
-13 1228 47 246 63 453 177 600 329 50 51 112 131 112 144 0 3 -30 -15 -67
-40 -87 -58 -186 -104 -304 -143 -122 -40 -271 -74 -279 -64 -4 4 -15 139 -24
298 -23 383 -50 647 -59 585 -13 -88 -45 -499 -62 -792 l-7 -116 -35 -7 c-48
-9 -347 -24 -353 -18 -3 3 -5 158 -6 346 0 282 -3 351 -16 393 -24 77 -55 132
-105 185 -94 100 -221 144 -371 127z m189 -135 c66 -29 124 -86 156 -151 l28
-57 3 -288 c2 -159 1 -296 -3 -305 -16 -42 -27 23 -41 239 -8 129 -19 250 -24
269 -24 89 -110 178 -194 201 -102 27 -196 4 -286 -71 -53 -44 -69 -40 -47 13
29 68 102 132 186 164 50 19 164 11 222 -14z"/>
<path d="M2485 1594 c-75 -38 -117 -104 -221 -341 -27 -62 -54 -113 -60 -113
-17 0 -117 238 -111 266 4 24 4 24 -92 24 l-96 0 118 -241 c64 -133 117 -245
117 -250 0 -27 19 1 54 79 22 48 53 116 69 152 56 124 166 345 179 360 7 8 30
30 51 48 41 35 39 40 -8 16z"/>
<path d="M877 1463 c-14 -4 -12 -8 15 -27 36 -24 75 -77 85 -114 8 -33 -8 -77
-91 -246 l-71 -146 33 0 c29 0 32 3 32 31 0 17 8 44 17 60 17 28 19 29 99 29
l83 0 35 -74 c38 -78 102 -153 156 -181 37 -19 126 -31 165 -21 26 7 25 8 -27
34 -72 36 -98 76 -198 297 -65 145 -125 264 -147 294 -41 53 -120 81 -186 64z
m160 -301 c14 -34 23 -68 20 -75 -8 -21 -115 -23 -123 -2 -7 17 56 146 70 142
5 -2 20 -31 33 -65z"/>
<path d="M2718 1424 c-24 -12 -48 -42 -48 -58 0 -2 13 9 29 25 24 24 38 29 77
29 42 0 51 -5 89 -42 37 -38 44 -52 54 -113 27 -156 -28 -288 -132 -316 -85
-23 -169 32 -202 132 -30 89 -18 266 22 328 15 23 15 24 -13 17 -44 -10 -105
-57 -139 -104 -25 -37 -30 -55 -33 -117 -5 -91 9 -136 60 -191 135 -146 469
-114 561 55 34 61 37 163 8 227 -23 51 -90 108 -149 128 -57 20 -148 20 -184
0z"/>
<path d="M3203 1431 c-70 -5 -96 -11 -112 -25 -23 -21 -28 -68 -8 -84 9 -8 12
-2 12 26 0 43 27 62 93 62 l42 0 0 -228 c0 -164 -3 -231 -12 -240 -9 -9 9 -12
80 -12 90 0 92 1 82 20 -13 24 -10 446 4 473 9 19 -1 20 -181 8z"/>
<path d="M3500 1395 c1 -35 2 -38 14 -23 7 10 25 22 40 28 35 13 176 13 176 0
0 -5 -49 -110 -110 -233 -60 -123 -110 -228 -110 -233 0 -6 24 -15 53 -21 28
-6 101 -35 161 -63 61 -28 151 -65 200 -82 119 -40 207 -37 276 8 l44 29 -105
6 c-61 4 -141 17 -194 31 -49 14 -136 38 -192 53 -57 15 -103 33 -103 39 0 6
56 119 124 251 124 239 125 240 98 242 -15 1 -105 4 -200 5 l-172 3 0 -40z"/>
<path d="M1379 1416 c9 -11 11 -80 9 -254 l-3 -240 36 -6 c20 -3 95 -35 166
-70 263 -131 384 -146 476 -58 45 44 47 54 6 40 -43 -15 -199 -4 -301 22 -121
31 -210 59 -225 71 -18 16 -19 479 -1 497 9 9 -9 12 -81 12 -80 0 -92 -2 -82
-14z"/>
<path d="M1670 1141 c0 -26 20 -31 110 -26 41 2 81 4 88 4 6 1 12 10 12 21 0
19 -7 20 -105 20 -97 0 -105 -1 -105 -19z"/>
</g>
</svg>
